<?xml version="1.0" standalone="no"?>
<!DOCTYPE svg PUBLIC "-//W3C//DTD SVG 20010904//EN"
 "http://www.w3.org/TR/2001/REC-SVG-20010904/DTD/svg10.dtd">
<svg version="1.0" xmlns="http://www.w3.org/2000/svg"
 width="360.000000pt" height="360.000000pt" viewBox="0 0 360.000000 360.000000"
 preserveAspectRatio="xMidYMid meet">
<metadata>
Created by potrace 1.14, written by Peter Selinger 2001-2017
</metadata>
<g transform="translate(0.000000,360.000000) scale(0.100000,-0.100000)"
fill="#000000" stroke="none">
<path d="M70 1795 l0 -1725 1740 0 1740 0 0 1370 0 1370 -717 2 -718 3 -3 353
-2 352 -1020 0 -1020 0 0 -1725z m760 1365 l0 -140 -175 0 -175 0 0 140 0 140
175 0 175 0 0 -140z m440 0 l0 -140 -175 0 -175 0 0 140 0 140 175 0 175 0 0
-140z m450 0 l0 -140 -175 0 -175 0 0 140 0 140 175 0 175 0 0 -140z m-890
-400 l0 -140 -175 0 -175 0 0 140 0 140 175 0 175 0 0 -140z m440 0 l0 -140
-175 0 -175 0 0 140 0 140 175 0 175 0 0 -140z m450 0 l0 -140 -175 0 -175 0
0 140 0 140 175 0 175 0 0 -140z m-890 -415 l0 -135 -175 0 -175 0 0 135 0
135 175 0 175 0 0 -135z m440 0 l0 -135 -175 0 -175 0 0 135 0 135 175 0 175
0 0 -135z m450 0 l0 -135 -175 0 -175 0 0 135 0 135 175 0 175 0 0 -135z m830
-75 l0 -140 -175 0 -175 0 0 140 0 140 175 0 175 0 0 -140z m440 0 l0 -140
-175 0 -175 0 0 140 0 140 175 0 175 0 0 -140z m450 0 l0 -140 -175 0 -175 0
0 140 0 140 175 0 175 0 0 -140z m-2610 -325 l0 -135 -175 0 -175 0 0 135 0
135 175 0 175 0 0 -135z m440 0 l0 -135 -175 0 -175 0 0 135 0 135 175 0 175
0 0 -135z m450 0 l0 -135 -175 0 -175 0 0 135 0 135 175 0 175 0 0 -135z m830
-75 l0 -140 -175 0 -175 0 0 140 0 140 175 0 175 0 0 -140z m440 0 l0 -140
-175 0 -175 0 0 140 0 140 175 0 175 0 0 -140z m450 0 l0 -140 -175 0 -175 0
0 140 0 140 175 0 175 0 0 -140z m-2610 -315 l0 -135 -175 0 -175 0 0 135 0
135 175 0 175 0 0 -135z m440 0 l0 -135 -175 0 -175 0 0 135 0 135 175 0 175
0 0 -135z m450 0 l0 -135 -175 0 -175 0 0 135 0 135 175 0 175 0 0 -135z m830
-90 l0 -145 -175 0 -175 0 0 145 0 145 175 0 175 0 0 -145z m440 0 l0 -145
-175 0 -175 0 0 145 0 145 175 0 175 0 0 -145z m450 0 l0 -145 -175 0 -175 0
0 145 0 145 175 0 175 0 0 -145z m-2610 -310 l0 -135 -175 0 -175 0 0 135 0
135 175 0 175 0 0 -135z m440 0 l0 -135 -175 0 -175 0 0 135 0 135 175 0 175
0 0 -135z m450 0 l0 -135 -175 0 -175 0 0 135 0 135 175 0 175 0 0 -135z m830
-97 l0 -143 -175 0 -175 0 0 143 0 142 175 0 175 0 0 -142z m440 0 l0 -143
-175 0 -175 0 0 143 0 142 175 0 175 0 0 -142z m450 0 l0 -143 -175 0 -175 0
0 143 0 142 175 0 175 0 0 -142z m-2610 -313 l0 -135 -175 0 -175 0 0 135 0
135 175 0 175 0 0 -135z m440 0 l0 -135 -175 0 -175 0 0 135 0 135 175 0 175
0 0 -135z m450 0 l0 -135 -175 0 -175 0 0 135 0 135 175 0 175 0 0 -135z m830
-90 l0 -145 -175 0 -175 0 0 145 0 145 175 0 175 0 0 -145z m440 0 l0 -145
-175 0 -175 0 0 145 0 145 175 0 175 0 0 -145z m450 0 l0 -145 -175 0 -175 0
0 145 0 145 175 0 175 0 0 -145z"/>
</g>
</svg>
